<svg width="50" height="50" viewBox="0 0 50 50" fill="none" xmlns="http://www.w3.org/2000/svg">
<g id="solar:cloud-rain-broken">
<path id="Vector" d="M45.8334 27.8187C45.8334 31.8604 43.7709 35.4292 40.6251 37.5479M29.9605 16.7229C31.2364 16.2784 32.5781 16.0523 33.9292 16.0542C35.2917 16.0542 36.6022 16.2813 37.8251 16.6979M37.8251 16.6979C37.1605 10.8208 32.1167 6.25 25.9917 6.25C19.4167 6.25 14.0876 11.5167 14.0876 18.0146C14.0866 19.4104 14.335 20.7951 14.8251 22.1021M37.8251 16.6979C39.2302 17.1788 40.5331 17.9178 41.6667 18.8771M14.8251 22.1021C14.2554 21.9913 13.6763 21.9355 13.0959 21.9354C8.16466 21.9375 4.16675 25.8875 4.16675 30.7604C4.16675 33.4896 5.42091 35.9271 7.38966 37.5479M14.8251 22.1021C15.9778 22.326 17.0751 22.7748 18.0542 23.4229M35.4167 39.5833L31.2501 43.75M33.3334 32.2917L29.1667 36.4583M25.0001 41.6667L20.8334 45.8333M23.9584 32.2917L19.7917 36.4583M15.6251 39.5833L11.4584 43.75" stroke="black" stroke-width="3" stroke-linecap="round"/>
</g>
</svg>
