<svg width="58" height="58" viewBox="0 0 58 58" fill="none" xmlns="http://www.w3.org/2000/svg">
<g id="material-symbols-light:cloudy-snowing-outline" clip-path="url(#clip0_21_198)">
<path id="Vector" d="M15.7088 55.9153C15.2322 55.9153 14.8339 55.7331 14.5137 55.3688C14.1918 55.0065 14.0308 54.5557 14.0308 54.0164C14.0308 53.4771 14.1918 53.0263 14.5137 52.6641C14.8339 52.2997 15.2322 52.1176 15.7088 52.1176C16.1854 52.1176 16.5837 52.2997 16.9038 52.6641C17.2258 53.0263 17.3868 53.4771 17.3868 54.0164C17.3868 54.5557 17.2258 55.0065 16.9038 55.3688C16.5837 55.7331 16.1854 55.9153 15.7088 55.9153ZM48.4503 55.9153C47.9737 55.9153 47.5754 55.7331 47.2552 55.3688C46.9333 55.0065 46.7723 54.5557 46.7723 54.0164C46.7723 53.4771 46.9333 53.0263 47.2552 52.6641C47.5754 52.2997 47.9737 52.1176 48.4503 52.1176C48.9269 52.1176 49.3252 52.2997 49.6453 52.6641C49.9673 53.0263 50.1283 53.4771 50.1283 54.0164C50.1283 54.5557 49.9673 55.0065 49.6453 55.3688C49.3252 55.7331 48.9269 55.9153 48.4503 55.9153ZM23.8942 68.2655C23.4176 68.2655 23.0192 68.0833 22.6991 67.719C22.3771 67.3567 22.2162 66.9059 22.2162 66.3666C22.2162 65.8274 22.3771 65.3766 22.6991 65.0143C23.0192 64.65 23.4176 64.4678 23.8942 64.4678C24.3707 64.4678 24.7691 64.65 25.0892 65.0143C25.4112 65.3766 25.5722 65.8274 25.5722 66.3666C25.5722 66.9059 25.4112 67.3567 25.0892 67.719C24.7691 68.0833 24.3707 68.2655 23.8942 68.2655ZM32.0795 55.9153C31.603 55.9153 31.2046 55.7331 30.8845 55.3688C30.5625 55.0065 30.4015 54.5557 30.4015 54.0164C30.4015 53.4771 30.5625 53.0263 30.8845 52.6641C31.2046 52.2997 31.603 52.1176 32.0795 52.1176C32.5561 52.1176 32.9545 52.2997 33.2746 52.6641C33.5966 53.0263 33.7575 53.4771 33.7575 54.0164C33.7575 54.5557 33.7575 55.3688 33.4356 55.731C33.1154 56.0954 32.5561 55.9153 32.0795 55.9153ZM40.2649 68.2655C39.7883 68.2655 39.39 68.0833 39.0698 67.719C38.7479 67.3567 38.5869 66.9059 38.5869 66.3666C38.5869 65.8274 38.7479 65.3766 39.0698 65.0143C39.39 64.65 39.7883 64.4678 40.2649 64.4678C40.7415 64.4678 41.1398 64.65 41.46 65.0143C41.7819 65.3766 41.9429 65.8274 41.9429 66.3666C41.9429 66.9059 41.7819 67.3567 41.46 67.719C41.1398 68.0833 40.7415 68.2655 40.2649 68.2655ZM19.8015 46.2975C16.0126 46.2975 12.7921 44.796 10.14 41.7928C7.48612 38.7917 6.15918 35.1473 6.15918 30.8598C6.15918 26.8665 7.34879 23.4126 9.728 20.4979C12.1054 17.5874 15.084 15.9077 18.6637 15.459C20.017 12.5629 21.8669 10.2884 24.2134 8.63552C26.5599 6.98471 29.1755 6.1593 32.0604 6.1593C35.9894 6.1593 39.3618 7.62898 42.1776 10.5683C44.9915 13.5077 46.6286 17.1706 47.0888 21.5569C50.4375 21.7854 53.0932 23.1028 55.0559 25.509C57.0186 27.9173 57.9999 30.7362 57.9999 33.9658C57.9999 37.3766 56.9385 40.285 54.8158 42.6913C52.6949 45.0954 50.1183 46.2975 47.0861 46.2975H19.8015ZM19.8015 43.21H47.0861C49.3452 43.21 51.2742 42.3053 52.8731 40.496C54.472 38.6867 55.2714 36.5038 55.2714 33.9473C55.2714 31.3908 54.472 29.2079 52.8731 27.3986C51.2742 25.5893 49.3452 24.6846 47.0861 24.6846H44.3576V23.1409C44.3576 19.3205 43.1543 16.0498 40.7478 13.3286C38.3413 10.6074 35.4492 9.24686 32.0713 9.24686C29.6157 9.24686 27.3775 10.0013 25.3566 11.51C23.3376 13.0209 21.816 15.0535 20.7919 17.608L20.4699 18.5095H19.665C16.6965 18.6269 14.159 19.8763 12.0526 22.2578C9.94264 24.6394 8.88764 27.5067 8.88764 30.8598C8.88764 34.2705 9.95265 37.182 12.0827 39.5944C14.2127 42.0069 16.7856 43.212 19.8015 43.21Z" fill="black"/>
</g>
<defs>
<clipPath id="clip0_21_198">
<rect width="58" height="58" fill="white"/>
</clipPath>
</defs>
</svg>
