<svg width="49" height="49" viewBox="0 0 49 49" fill="none" xmlns="http://www.w3.org/2000/svg">
<g id="solar:cloud-storm-broken">
<g id="Group">
<path id="Vector" d="M44.9166 27.2624C44.9166 31.2232 42.8953 34.7206 39.8124 36.797M29.3611 16.3885C30.6115 15.9528 31.9264 15.7312 33.2505 15.7331C34.5857 15.7331 35.87 15.9556 37.0684 16.364M37.0684 16.364C36.4171 10.6044 31.4742 6.125 25.4717 6.125C19.0283 6.125 13.8057 11.2863 13.8057 17.6543C13.8047 19.0222 14.0482 20.3792 14.5284 21.66M37.0684 16.364C38.4454 16.8352 39.7222 17.5595 40.8332 18.4995M14.5284 21.66C13.9701 21.5515 13.4026 21.4968 12.8338 21.4967C8.00121 21.4988 4.08325 25.3698 4.08325 30.1452C4.08325 32.8198 5.31234 35.2085 7.24171 36.797M14.5284 21.66C15.6581 21.8794 16.7334 22.3193 17.693 22.9545M34.7082 38.7917L30.6249 42.875M30.6249 31.6458L26.5416 35.7292M26.5416 40.8333L22.4583 44.9167" stroke="black" stroke-width="3" stroke-linecap="round"/>
<path id="Vector_2" d="M12.25 45.7027L21.0006 38.1649H12.25L21.0006 30.625" stroke="black" stroke-width="3" stroke-linecap="round" stroke-linejoin="round"/>
</g>
</g>
</svg>
