<svg width="57" height="55" viewBox="0 0 57 55" fill="none" xmlns="http://www.w3.org/2000/svg">
<g id="fontisto:day-rain" clip-path="url(#clip0_21_164)">
<path id="Vector" d="M8.55 54.5829C8.4182 54.4515 8.31359 54.2951 8.24219 54.1228C8.1708 53.9506 8.13405 53.7658 8.13405 53.5792C8.13405 53.3925 8.1708 53.2078 8.24219 53.0355C8.31359 52.8632 8.4182 52.7069 8.55 52.5754L15.8574 45.2306C16.0518 45.025 16.3031 44.8828 16.5788 44.8224C16.8546 44.762 17.142 44.7862 17.4038 44.8919C17.6657 44.9976 17.89 45.1799 18.0476 45.4151C18.2052 45.6504 18.2889 45.9278 18.2879 46.2115C18.2882 46.403 18.2498 46.5925 18.1749 46.7686C18.1001 46.9448 17.9903 47.1037 17.8524 47.2358L10.5427 54.5806C10.4118 54.7128 10.2562 54.8177 10.0848 54.8893C9.91343 54.9609 9.72967 54.9978 9.54408 54.9978C9.3585 54.9978 9.17474 54.9609 9.00337 54.8893C8.83199 54.8177 8.67637 54.7128 8.54544 54.5806L8.55 54.5829ZM23.4179 47.6323C23.2861 47.5009 23.1815 47.3445 23.1101 47.1722C23.0387 46.9999 23.0019 46.8152 23.0019 46.6285C23.0019 46.4419 23.0387 46.2571 23.1101 46.0849C23.1815 45.9126 23.2861 45.7562 23.4179 45.6248L28.785 40.2302H13.8715L6.50713 47.6323C6.37613 47.7641 6.22059 47.8687 6.04938 47.9401C5.87817 48.0115 5.69465 48.0483 5.50929 48.0484C5.32393 48.0485 5.14037 48.0119 4.96908 47.9407C4.79779 47.8695 4.64213 47.7651 4.51098 47.6334C4.37984 47.5018 4.27578 47.3454 4.20475 47.1734C4.13372 47.0013 4.09711 46.8168 4.097 46.6305C4.09689 46.4442 4.1333 46.2597 4.20413 46.0875C4.27497 45.9154 4.37885 45.7589 4.50984 45.6271L9.90432 40.2027C8.54674 40.1981 7.20378 39.9206 5.95447 39.3866C4.70517 38.8525 3.57476 38.0727 2.62976 37.093C1.68476 36.1133 0.94426 34.9535 0.451833 33.6819C-0.0405934 32.4103 -0.274999 31.0525 -0.237589 29.6885C-0.20018 28.3245 0.108289 26.9818 0.669665 25.7393C1.23104 24.4969 2.03398 23.3799 3.03125 22.454C4.02851 21.5282 5.19994 20.8121 6.47662 20.3481C7.7533 19.884 9.10943 19.6813 10.4652 19.7519H10.4515C10.6111 19.7519 10.7662 19.7633 10.9235 19.7725C13.3266 15.5146 17.8 12.6844 22.9345 12.6706H22.9573C25.1165 12.6706 27.1594 13.1748 28.9742 14.0708L28.8944 14.0342C29.8378 13.0072 30.985 12.1906 32.262 11.6371L32.3258 11.6119C34.6676 10.6172 37.3001 10.565 39.6791 11.4662C42.0581 12.3673 44.0016 14.1528 45.1077 16.4536C46.2139 18.7543 46.3981 21.3943 45.6224 23.8278C44.8466 26.2612 43.1702 28.302 40.9397 29.5281L40.8872 29.5533C41.5486 30.6045 41.9172 31.8148 41.9546 33.058C41.992 34.3012 41.6968 35.5316 41.0999 36.6211C40.503 37.7105 39.6262 38.619 38.5609 39.2518C37.4957 39.8846 36.281 40.2186 35.0436 40.2187H32.7796L25.4152 47.6208C25.2844 47.7533 25.1288 47.8585 24.9574 47.9302C24.786 48.002 24.6022 48.0389 24.4165 48.0389C24.2309 48.0389 24.047 48.002 23.8756 47.9302C23.7042 47.8585 23.5487 47.7533 23.4179 47.6208V47.6323ZM3.09168 29.991C3.09349 31.9526 3.86941 33.8334 5.24919 35.2207C6.62897 36.6079 8.49992 37.3884 10.4515 37.3908H35.0276C35.6883 37.3908 36.3392 37.2305 36.925 36.9235C37.5108 36.6166 38.0142 36.172 38.3924 35.6275C38.7706 35.0831 39.0125 34.455 39.0975 33.7965C39.1825 33.138 39.1081 32.4686 38.8805 31.8452C38.653 31.2218 38.2791 30.6628 37.7906 30.2158C37.3022 29.7687 36.7135 29.4468 36.0747 29.2774C35.436 29.1079 34.7659 29.096 34.1216 29.2426C33.4773 29.3892 32.8776 29.69 32.3737 30.1194L32.3806 30.1148C32.0951 30.3582 31.7252 30.4777 31.3522 30.447C30.9791 30.4162 30.6334 30.2378 30.3913 29.9509C30.1491 29.6641 30.0302 29.2922 30.0608 28.9173C30.0913 28.5423 30.2689 28.1949 30.5543 27.9515L30.5566 27.9492C31.4858 27.1564 32.6078 26.6258 33.8078 26.4115L33.8489 26.4046C33.8332 24.0653 33.0735 21.7923 31.681 19.9179C30.2885 18.0434 28.3361 16.6657 26.1091 15.986C23.882 15.3064 21.4971 15.3604 19.3027 16.1402C17.1084 16.9199 15.2197 18.3846 13.9126 20.3202L13.8875 20.3592C15.0092 20.7671 15.9782 21.3217 16.8332 22.0115L16.8127 21.9954C16.9675 22.1083 17.0979 22.2516 17.196 22.4167C17.2941 22.5817 17.3579 22.765 17.3834 22.9555C17.409 23.146 17.3958 23.3398 17.3447 23.525C17.2936 23.7103 17.2057 23.8832 17.0861 24.0333C16.9666 24.1834 16.818 24.3075 16.6494 24.3982C16.4808 24.4889 16.2956 24.5442 16.105 24.5609C15.9145 24.5776 15.7226 24.5552 15.5409 24.4951C15.3592 24.435 15.1915 24.3385 15.048 24.2115L15.0503 24.2138C13.7572 23.1614 12.1427 22.5892 10.4789 22.5935H10.4584C8.50576 22.5948 6.63341 23.3746 5.25228 24.762C3.87115 26.1493 3.0941 28.0307 3.09168 29.9933V29.991ZM33.4202 14.2313C32.6268 14.5796 31.9451 15.0333 31.3568 15.5902L31.3614 15.5856C33.0161 16.8736 34.3555 18.5254 35.2767 20.4142C36.198 22.3031 36.6767 24.3789 36.6761 26.4825V26.5077C37.4764 26.7071 38.1809 27.0233 38.8124 27.4381L38.7874 27.4221C40.1047 26.8931 41.2344 25.9798 42.0308 24.7999C42.8273 23.6199 43.2541 22.2273 43.2562 20.8015C43.2562 18.9818 42.5638 17.2311 41.3209 15.9081C40.0779 14.585 38.3786 13.79 36.5712 13.6858H36.553C36.4238 13.6797 36.2946 13.6767 36.1654 13.6767H36.1471C35.1622 13.6767 34.2251 13.8806 33.3746 14.2473L33.4202 14.2313ZM48.01 36.2015L44.6378 32.4271C44.5139 32.2885 44.4183 32.1267 44.3565 31.951C44.2948 31.7753 44.2681 31.5891 44.2779 31.403C44.2878 31.2169 44.334 31.0346 44.4139 30.8664C44.4939 30.6983 44.606 30.5476 44.7439 30.423C44.8817 30.2984 45.0427 30.2024 45.2175 30.1403C45.3923 30.0782 45.5776 30.0514 45.7628 30.0612C45.9479 30.0711 46.1293 30.1176 46.2966 30.198C46.4639 30.2783 46.6138 30.391 46.7377 30.5296L46.74 30.5319L50.1121 34.3085C50.2361 34.4471 50.3317 34.6089 50.3934 34.7846C50.4552 34.9603 50.4819 35.1465 50.4721 35.3326C50.4622 35.5187 50.416 35.7011 50.336 35.8692C50.2561 36.0373 50.144 36.188 50.0061 36.3126C49.8682 36.4372 49.7073 36.5333 49.5325 36.5953C49.3576 36.6574 49.1724 36.6843 48.9872 36.6744C48.8021 36.6645 48.6207 36.618 48.4534 36.5377C48.2861 36.4573 48.1362 36.3446 48.0122 36.206L48.01 36.2015ZM55.3744 23.2719L50.331 22.9969C49.9733 22.9641 49.6414 22.7957 49.4028 22.5258C49.1642 22.256 49.0367 21.9049 49.0463 21.544C49.0559 21.1831 49.2018 20.8394 49.4544 20.5827C49.707 20.3261 50.0473 20.1757 50.4062 20.1621L50.486 20.1644H50.4815L55.5226 20.4394C55.8803 20.4722 56.2122 20.6406 56.4508 20.9104C56.6894 21.1803 56.8169 21.5313 56.8073 21.8922C56.7977 22.2531 56.6518 22.5968 56.3992 22.8535C56.1466 23.1102 55.8063 23.2606 55.4473 23.2742L55.3744 23.2719ZM45.7322 12.1802C45.6079 12.0419 45.512 11.8802 45.4501 11.7045C45.3881 11.5288 45.3613 11.3425 45.3713 11.1563C45.3813 10.9702 45.4278 10.7879 45.5081 10.6198C45.5884 10.4518 45.701 10.3014 45.8394 10.1773H45.8417L49.5991 6.78792C49.737 6.66333 49.8979 6.56725 50.0728 6.50518C50.2476 6.4431 50.4329 6.41625 50.618 6.42614C50.8032 6.43604 50.9845 6.48249 51.1518 6.56285C51.3191 6.64321 51.469 6.75589 51.593 6.89448C51.7169 7.03307 51.8125 7.19483 51.8743 7.37055C51.936 7.54627 51.9628 7.73249 51.9529 7.91858C51.9431 8.10468 51.8969 8.287 51.8169 8.45514C51.737 8.62328 51.6248 8.77395 51.487 8.89854L51.4847 8.90083L47.7272 12.2902C47.5896 12.4152 47.4288 12.5116 47.254 12.5738C47.0791 12.6361 46.8938 12.663 46.7086 12.653C46.5234 12.643 46.342 12.5963 46.1748 12.5155C46.0076 12.4348 45.858 12.3216 45.7345 12.1825L45.7322 12.1802ZM25.5907 11.0825L22.2186 7.30354C22.0946 7.16466 21.9991 7.00259 21.9375 6.8266C21.8758 6.6506 21.8493 6.46413 21.8593 6.27782C21.8694 6.09151 21.9159 5.90902 21.9961 5.74076C22.0763 5.57251 22.1887 5.42178 22.3269 5.29719C22.4651 5.1726 22.6263 5.07658 22.8014 5.01462C22.9765 4.95266 23.162 4.92598 23.3474 4.93609C23.5328 4.94619 23.7143 4.9929 23.8817 5.07353C24.0491 5.15417 24.1991 5.26716 24.323 5.40604L27.6929 9.18729C27.9435 9.46839 28.0728 9.83806 28.0523 10.215C28.0318 10.5919 27.8631 10.9452 27.5834 11.1971C27.3038 11.449 26.936 11.579 26.561 11.5583C26.186 11.5377 25.8345 11.3682 25.5839 11.0871L25.5816 11.0848L25.5907 11.0825ZM36.863 7.90854C36.6775 7.8983 36.4958 7.85139 36.3283 7.77049C36.1608 7.6896 36.0109 7.57631 35.887 7.43711C35.7631 7.29791 35.6678 7.13553 35.6064 6.95925C35.545 6.78297 35.5188 6.59626 35.5292 6.40979V6.41438L35.8028 1.34521C35.8355 0.985669 36.003 0.652093 36.2715 0.412249C36.54 0.172406 36.8892 0.0442836 37.2483 0.0539116C37.6074 0.0635396 37.9493 0.210196 38.2047 0.464086C38.4601 0.717976 38.6097 1.06006 38.6232 1.42083L38.6209 1.50104V1.49646L38.3473 6.56563C38.3275 6.928 38.1705 7.26902 37.9085 7.51873C37.6465 7.76844 37.2994 7.90792 36.9383 7.90854H36.863Z" fill="black"/>
</g>
<defs>
<clipPath id="clip0_21_164">
<rect width="57" height="55" fill="white"/>
</clipPath>
</defs>
</svg>
