<svg width="57" height="57" viewBox="0 0 57 57" fill="none" xmlns="http://www.w3.org/2000/svg">
<path id="Vector" d="M28.5 8.11538V2M14.086 14.086L9.76246 9.76246M8.11538 28.5H2M28.5 55V48.8846M47.2375 47.2375L42.914 42.916M55 28.5H48.8846M14.086 42.914L9.76246 47.2375M47.2375 9.76246L42.916 14.086M40.7308 28.5C40.7308 31.7438 39.4422 34.8547 37.1485 37.1485C34.8547 39.4422 31.7438 40.7308 28.5 40.7308C25.2562 40.7308 22.1453 39.4422 19.8515 37.1485C17.5578 34.8547 16.2692 31.7438 16.2692 28.5C16.2692 25.2562 17.5578 22.1453 19.8515 19.8515C22.1453 17.5578 25.2562 16.2692 28.5 16.2692C31.7438 16.2692 34.8547 17.5578 37.1485 19.8515C39.4422 22.1453 40.7308 25.2562 40.7308 28.5Z" stroke="black" stroke-width="3" stroke-linecap="round" stroke-linejoin="round"/>
</svg>
