<svg width="47" height="37" viewBox="0 0 47 37" fill="none" xmlns="http://www.w3.org/2000/svg">
<path id="Vector" d="M0.000786067 27.8214C0.000786067 27.3115 0.165913 26.8831 0.516807 26.5364C0.867702 26.21 1.28052 26.0469 1.75526 26.0469H12.9426C14.47 26.0469 15.7704 26.5772 16.8437 27.6582C17.917 28.7393 18.4537 30.0243 18.4537 31.5336C18.4537 33.043 17.917 34.3484 16.8437 35.409C15.7704 36.4697 14.47 37 12.9426 37C11.4152 37 10.0942 36.4697 9.02084 35.3886C8.86101 35.2277 8.73639 35.036 8.65471 34.8255C8.57304 34.615 8.53607 34.3901 8.5461 34.1648C8.5461 33.6753 8.71122 33.247 9.02084 32.941C9.33045 32.6147 9.74327 32.4515 10.2593 32.4515C10.734 32.4515 11.1468 32.6147 11.5184 32.941C11.9312 33.3286 12.4059 33.5325 12.9426 33.5325C13.4793 33.5325 13.954 33.3286 14.3462 32.941C14.5397 32.7563 14.6928 32.5343 14.7958 32.2886C14.8987 32.043 14.9495 31.7791 14.9448 31.5132C14.9448 30.9829 14.7384 30.5138 14.3462 30.1262C13.954 29.7387 13.4793 29.5347 12.9426 29.5347H1.75526C1.28052 29.5347 0.867702 29.3716 0.516807 29.0248C0.165913 28.6781 0.000786067 28.3109 0.000786067 27.8214ZM0.000786067 21.6207C0.000786067 21.1312 0.165913 20.7029 0.516807 20.3561C0.867702 20.0298 1.28052 19.8666 1.75526 19.8666H23.5314C24.068 19.8666 24.5428 19.6626 24.9349 19.2751C25.3271 18.8875 25.5335 18.398 25.5335 17.8677C25.5335 17.3374 25.3271 16.8479 24.9349 16.4603C24.7537 16.273 24.5358 16.124 24.2945 16.0223C24.0533 15.9206 23.7936 15.8684 23.5314 15.8688C22.9534 15.8688 22.4993 16.0524 22.1278 16.4399C21.7562 16.7459 21.3228 16.909 20.8068 16.909C20.3114 16.909 19.8986 16.7459 19.5683 16.4399C19.4093 16.2784 19.2852 16.0867 19.2036 15.8763C19.1219 15.6659 19.0845 15.4412 19.0936 15.2161C19.0936 14.7062 19.2381 14.2982 19.5683 13.9719C20.621 12.9316 21.942 12.4217 23.5314 12.4217C25.0588 12.4217 26.3798 12.952 27.4531 14.0127C28.5264 15.0733 29.0631 16.3583 29.0631 17.8473C29.0631 19.3363 28.5264 20.6417 27.4531 21.7023C26.3798 22.763 25.0794 23.2933 23.5314 23.2933H1.75526C1.25988 23.2933 0.847061 23.1301 0.516807 22.8037C0.348132 22.6561 0.214447 22.4736 0.125259 22.2691C0.0360719 22.0646 -0.0064268 21.8433 0.000786067 21.6207ZM4.43857 16.8071C4.43857 16.9702 4.54177 17.0518 4.76882 17.0518H7.7411C7.90623 17.0518 8.05072 16.9498 8.1952 16.7459C8.6493 15.6444 9.39237 14.7266 10.3625 13.9923C11.3533 13.258 12.4472 12.8501 13.6444 12.7685L14.7384 12.6053C15.0067 12.6053 15.1512 12.4829 15.1512 12.2585L15.2957 11.1979C15.5227 8.99504 16.4515 7.13892 18.1235 5.64995C19.7954 4.16097 21.7562 3.40628 24.0267 3.40628C26.3179 3.40628 28.2994 4.14057 29.9713 5.62955C31.6432 7.11852 32.5927 8.97464 32.8404 11.1979L32.9849 12.4013C32.9849 12.6257 33.1087 12.7481 33.3358 12.7481H36.6796C38.5579 12.7481 40.1472 13.4008 41.4889 14.7062C42.8305 16.0116 43.4911 17.5617 43.4911 19.3975C43.4911 21.2128 42.8305 22.7834 41.4889 24.0888C40.1472 25.3942 38.5579 26.0469 36.6796 26.0469H22.4167C22.1691 26.0469 22.0246 26.1692 22.0246 26.3936V29.2288C22.0246 29.4531 22.1484 29.5755 22.4167 29.5755H36.6796C38.5579 29.5755 40.2711 29.1268 41.8604 28.2089C43.4498 27.3115 44.6882 26.0673 45.6171 24.5171C46.5459 22.9465 47 21.2536 47 19.4179C47 17.5617 46.5459 15.8688 45.6171 14.3186C44.7161 12.7823 43.4201 11.5087 41.8604 10.6268C40.2711 9.72933 38.5579 9.2602 36.6796 9.2602H36.0397C35.3998 6.54741 33.955 4.32415 31.7051 2.59041C29.4759 0.856671 26.8958 0 24.0061 0C21.0957 0 18.5156 0.897464 16.2658 2.69239C14.0159 4.48732 12.5917 6.77178 11.9931 9.56615C10.218 9.97409 8.6493 10.8104 7.28701 12.075C5.92471 13.3396 4.97523 14.849 4.43857 16.5827V16.6643V16.8071Z" fill="black"/>
</svg>
